<svg width="18" height="18" viewBox="0 0 18 18" fill="none" xmlns="http://www.w3.org/2000/svg">
<path fill-rule="evenodd" clip-rule="evenodd" d="M9 17.0625C4.5472 17.0625 0.9375 13.4528 0.9375 9C0.9375 4.5472 4.5472 0.9375 9 0.9375C13.4528 0.9375 17.0625 4.5472 17.0625 9C17.0625 13.4528 13.4528 17.0625 9 17.0625ZM6.03301 15.2728C3.77632 14.2036 2.18875 11.9524 2.06969 9.31865C2.57142 9.58012 3.16006 9.76365 3.81659 9.76365C4.29189 9.76365 4.64128 9.78684 4.90116 9.83553C5.16022 9.88405 5.29037 9.95086 5.36124 10.0089C5.48099 10.107 5.59381 10.3164 5.59381 11.0639L5.59381 11.1195C5.59377 11.8117 5.59375 12.2229 5.64874 12.5906C5.70537 12.9693 5.81919 13.2954 6.00017 13.814L6.01517 13.8569C6.2268 14.4635 6.25626 14.9073 6.03301 15.2728ZM9 15.9375C8.33979 15.9375 7.70112 15.8453 7.09617 15.673C7.45875 14.9282 7.30423 14.1365 7.07737 13.4863C6.87713 12.9124 6.80069 12.6872 6.76137 12.4243C6.72034 12.1498 6.71881 11.8281 6.71881 11.0639C6.71881 10.3211 6.63666 9.59923 6.07399 9.13848C5.80365 8.91711 5.47073 8.79765 5.1083 8.72976C4.7467 8.66202 4.31617 8.63865 3.81659 8.63865C3.17913 8.63865 2.60165 8.37982 2.12929 8.0335C2.50357 5.34832 4.41482 3.15525 6.9456 2.37173C6.92911 2.5825 6.93759 2.79312 6.97306 2.99766C7.07611 3.59185 7.41439 4.15166 8.03451 4.45266C8.27095 4.56742 8.36597 4.68329 8.41828 4.78005C8.48106 4.89619 8.51198 5.03685 8.54673 5.27039C8.55046 5.29546 8.55417 5.32148 8.55801 5.34834C8.62186 5.79529 8.71936 6.47783 9.47396 6.9662C9.98357 7.29601 10.6214 7.41434 11.2972 7.21546C11.9604 7.02034 12.614 6.53497 13.2236 5.74598C13.5993 5.25964 14.1085 5.0104 14.5972 4.90036C15.4398 6.04889 15.9375 7.46632 15.9375 9C15.9375 9.08669 15.9359 9.17302 15.9328 9.25894C15.2897 9.10618 14.5569 9.17387 13.8267 9.69861C13.151 10.1842 12.6005 10.226 12.0946 10.2491L12.0253 10.2521C11.7955 10.2617 11.5026 10.2741 11.2419 10.3563C10.902 10.4635 10.6184 10.6815 10.4227 11.0565C10.1486 11.5819 10.1937 12.0453 10.3421 12.4505C10.4076 12.6295 10.495 12.8021 10.5688 12.9478L10.5736 12.9574C10.653 13.1143 10.7227 13.2525 10.7809 13.4001C10.8905 13.6783 10.9567 13.9846 10.8869 14.3934C10.8261 14.7496 10.657 15.2125 10.2761 15.8204C9.86246 15.8973 9.43593 15.9375 9 15.9375ZM11.7741 15.3606C13.8157 14.469 15.3451 12.6232 15.7989 10.3869C15.3806 10.253 14.9393 10.2844 14.4833 10.6121C13.5422 11.2885 12.727 11.3464 12.1459 11.3729C11.8407 11.3868 11.6933 11.3936 11.5803 11.4292C11.5195 11.4484 11.4755 11.4708 11.4201 11.5769C11.3247 11.7598 11.3324 11.8831 11.3985 12.0636C11.4387 12.1735 11.4966 12.2898 11.5774 12.4494L11.5833 12.4611C11.6583 12.6092 11.7492 12.7888 11.8276 12.9877C11.9952 13.4131 12.1073 13.9294 11.9959 14.5826C11.9541 14.8278 11.8818 15.0861 11.7741 15.3606ZM8.13082 2.11642C8.0606 2.35666 8.0453 2.59661 8.08152 2.80543C8.13381 3.10696 8.28563 3.32403 8.52576 3.44058C8.94927 3.64615 9.23108 3.91789 9.40795 4.2451C9.57434 4.55293 9.62493 4.87259 9.65948 5.10483L9.66242 5.12463C9.73312 5.60015 9.76499 5.8145 10.0852 6.02174C10.3253 6.17713 10.6247 6.24067 10.9797 6.13622C11.3474 6.02801 11.8183 5.72483 12.3333 5.05819C12.752 4.5163 13.27 4.17905 13.7847 3.97648C12.5399 2.79055 10.855 2.0625 9 2.0625C8.70563 2.0625 8.41554 2.08083 8.13082 2.11642Z" fill="#57A4BB"/>
</svg>
