<svg width="20" height="20" viewBox="0 0 20 20" fill="none" xmlns="http://www.w3.org/2000/svg">
<path fill-rule="evenodd" clip-rule="evenodd" d="M3.45441 2.7956C5.93855 1.27182 8.16707 1.87911 9.51335 2.89014C9.73484 3.05647 9.88684 3.1703 10 3.24717C10.1132 3.1703 10.2652 3.05647 10.4866 2.89014C11.8329 1.87911 14.0615 1.27182 16.5456 2.7956C18.2633 3.84923 19.2298 6.05013 18.8907 8.5789C18.5499 11.1199 16.9052 13.9937 13.4222 16.5717C13.3931 16.5933 13.3642 16.6147 13.3355 16.6359C12.126 17.5317 11.3251 18.1249 10 18.1249C8.67495 18.1249 7.87396 17.5317 6.66447 16.6359C6.63581 16.6147 6.60691 16.5933 6.57778 16.5717C3.09478 13.9937 1.45012 11.1199 1.10933 8.5789C0.770179 6.05013 1.7367 3.84923 3.45441 2.7956ZM9.86938 3.32771C9.8667 3.32892 9.86718 3.32852 9.87054 3.32717C9.87011 3.32738 9.86972 3.32756 9.86938 3.32771ZM10.1295 3.32717C10.1328 3.32852 10.1333 3.32892 10.1306 3.32771C10.1303 3.32756 10.1299 3.32738 10.1295 3.32717ZM8.76273 3.88967C7.76562 3.14087 6.09326 2.64335 4.10799 3.86111C2.89289 4.60646 2.0612 6.27252 2.34824 8.41274C2.63365 10.5408 4.0396 13.1379 7.32144 15.567C8.63991 16.5429 9.12114 16.8749 10 16.8749C10.8789 16.8749 11.3601 16.5429 12.6786 15.567C15.9604 13.1379 17.3664 10.5408 17.6518 8.41274C17.9388 6.27252 17.1071 4.60646 15.892 3.86111C13.9067 2.64335 12.2344 3.14087 11.2373 3.88967L11.2198 3.90276C10.9945 4.07198 10.801 4.21734 10.6462 4.31869C10.5657 4.37137 10.4766 4.42502 10.3841 4.46681C10.2963 4.50647 10.1615 4.55608 10 4.55608C9.83847 4.55608 9.70365 4.50647 9.61589 4.46681C9.52341 4.42502 9.43431 4.37137 9.35384 4.31869C9.19901 4.21733 9.00546 4.07197 8.78012 3.90273L8.76273 3.88967Z" fill="#12033B"/>
</svg>
