<svg width="32" height="33" viewBox="0 0 32 33" fill="none" xmlns="http://www.w3.org/2000/svg">
<rect y="0.5" width="32" height="32" rx="8" fill="#FFAD7A"/>
<path fill-rule="evenodd" clip-rule="evenodd" d="M19.1667 10.8188C19.1667 10.676 19.1667 10.5447 19.1592 10.4345C19.1511 10.3161 19.1327 10.1859 19.0779 10.0535C18.9594 9.76767 18.7323 9.54055 18.4465 9.42214C18.3141 9.36732 18.1839 9.34891 18.0655 9.34083C17.9553 9.33331 17.824 9.33332 17.6812 9.33333H17.6522C17.5093 9.33332 17.3781 9.33331 17.2679 9.34083C17.1494 9.34891 17.0192 9.36732 16.8869 9.42214C16.601 9.54055 16.3739 9.76767 16.2555 10.0535C16.2007 10.1859 16.1822 10.3161 16.1742 10.4345C16.1694 10.5043 16.1677 10.5825 16.167 10.6667H10C9.72386 10.6667 9.5 10.8905 9.5 11.1667C9.5 11.4428 9.72386 11.6667 10 11.6667H16.167C16.1677 11.7509 16.1694 11.829 16.1742 11.8988C16.1822 12.0172 16.2007 12.1475 16.2555 12.2798C16.3739 12.5657 16.601 12.7928 16.8869 12.9112C17.0192 12.966 17.1494 12.9844 17.2679 12.9925C17.3781 13 17.5093 13 17.6522 13H17.6812C17.824 13 17.9553 13 18.0655 12.9925C18.1839 12.9844 18.3141 12.966 18.4465 12.9112C18.7323 12.7928 18.9594 12.5657 19.0779 12.2798C19.1327 12.1475 19.1511 12.0172 19.1592 11.8988C19.1667 11.7886 19.1667 11.6574 19.1667 11.5145V10.8188ZM17.1667 11.1678V11.5C17.1667 11.6622 17.1669 11.7587 17.1718 11.8307C17.1749 11.8753 17.179 11.8942 17.1802 11.8991C17.1971 11.9383 17.2283 11.9696 17.2675 11.9865C17.2724 11.9877 17.2914 11.9918 17.3359 11.9948C17.4079 11.9997 17.5045 12 17.6667 12C17.8288 12 17.9254 11.9997 17.9974 11.9948C18.042 11.9918 18.0609 11.9877 18.0658 11.9865C18.105 11.9696 18.1363 11.9383 18.1531 11.8991C18.1544 11.8942 18.1584 11.8753 18.1615 11.8307C18.1664 11.7587 18.1667 11.6622 18.1667 11.5V10.8333C18.1667 10.6712 18.1664 10.5746 18.1615 10.5026C18.1584 10.458 18.1544 10.4391 18.1531 10.4342C18.1363 10.395 18.105 10.3637 18.0658 10.3469C18.0609 10.3456 18.042 10.3416 17.9974 10.3385C17.9254 10.3336 17.8288 10.3333 17.6667 10.3333C17.5045 10.3333 17.4079 10.3336 17.3359 10.3385C17.2914 10.3416 17.2724 10.3456 17.2675 10.3469C17.2283 10.3637 17.1971 10.395 17.1802 10.4342C17.179 10.4391 17.1749 10.458 17.1718 10.5026C17.1669 10.5746 17.1667 10.6712 17.1667 10.8333V11.1655L17.1667 11.1667L17.1667 11.1678Z" fill="#12033B"/>
<path fill-rule="evenodd" clip-rule="evenodd" d="M14.8337 21.6667H10C9.72386 21.6667 9.5 21.4428 9.5 21.1667C9.5 20.8905 9.72386 20.6667 10 20.6667H14.8337C14.8343 20.5825 14.8361 20.5043 14.8408 20.4345C14.8489 20.3161 14.8673 20.1859 14.9221 20.0535C15.0405 19.7677 15.2677 19.5405 15.5535 19.4221C15.6859 19.3673 15.8161 19.3489 15.9345 19.3408C16.0447 19.3333 16.176 19.3333 16.3188 19.3333H16.3478C16.4907 19.3333 16.6219 19.3333 16.7321 19.3408C16.8506 19.3489 16.9808 19.3673 17.1131 19.4221C17.399 19.5405 17.6261 19.7677 17.7445 20.0535C17.7993 20.1859 17.8177 20.3161 17.8258 20.4345C17.8333 20.5447 17.8333 20.676 17.8333 20.8188V21.5145C17.8333 21.6573 17.8333 21.7886 17.8258 21.8988C17.8177 22.0172 17.7993 22.1475 17.7445 22.2798C17.6261 22.5657 17.399 22.7928 17.1131 22.9112C16.9808 22.966 16.8506 22.9844 16.7321 22.9925C16.6219 23 16.4907 23 16.3478 23H16.3188C16.176 23 16.0447 23 15.9345 22.9925C15.8161 22.9844 15.6859 22.966 15.5535 22.9112C15.2677 22.7928 15.0405 22.5657 14.9221 22.2798C14.8673 22.1475 14.8489 22.0172 14.8408 21.8988C14.8361 21.829 14.8343 21.7509 14.8337 21.6667ZM15.8333 21.5V21.1678L15.8333 21.1667L15.8333 21.1655V20.8333C15.8333 20.6712 15.8336 20.5746 15.8385 20.5026C15.8416 20.458 15.8456 20.4391 15.8469 20.4342C15.8637 20.395 15.895 20.3637 15.9342 20.3469C15.9391 20.3456 15.958 20.3416 16.0026 20.3385C16.0746 20.3336 16.1712 20.3333 16.3333 20.3333C16.4955 20.3333 16.5921 20.3336 16.6641 20.3385C16.7086 20.3416 16.7276 20.3456 16.7325 20.3469C16.7717 20.3637 16.8029 20.395 16.8198 20.4342C16.821 20.4391 16.8251 20.458 16.8281 20.5026C16.8331 20.5746 16.8333 20.6712 16.8333 20.8333V21.5C16.8333 21.6622 16.8331 21.7587 16.8281 21.8307C16.8251 21.8753 16.821 21.8942 16.8198 21.8991C16.8029 21.9383 16.7717 21.9696 16.7325 21.9865C16.7276 21.9877 16.7086 21.9918 16.6641 21.9948C16.5921 21.9997 16.4955 22 16.3333 22C16.1712 22 16.0746 21.9997 16.0026 21.9948C15.958 21.9918 15.9391 21.9877 15.9342 21.9865C15.895 21.9696 15.8637 21.9383 15.8469 21.8991C15.8456 21.8942 15.8416 21.8753 15.8385 21.8307C15.8336 21.7587 15.8333 21.6622 15.8333 21.5Z" fill="#12033B"/>
<path d="M22 21.6667C22.2761 21.6667 22.5 21.4428 22.5 21.1667C22.5 20.8905 22.2761 20.6667 22 20.6667H19.3333C19.0572 20.6667 18.8333 20.8905 18.8333 21.1667C18.8333 21.4428 19.0572 21.6667 19.3333 21.6667H22Z" fill="#12033B"/>
<path fill-rule="evenodd" clip-rule="evenodd" d="M22.5 16.1667C22.5 16.4428 22.2761 16.6667 22 16.6667H15.833C15.8323 16.7509 15.8306 16.829 15.8258 16.8988C15.8177 17.0172 15.7993 17.1475 15.7445 17.2798C15.6261 17.5657 15.399 17.7928 15.1131 17.9112C14.9808 17.966 14.8506 17.9844 14.7321 17.9925C14.6219 18 14.4907 18 14.3478 18H14.3188C14.176 18 14.0447 18 13.9345 17.9925C13.8161 17.9844 13.6859 17.966 13.5535 17.9112C13.2677 17.7928 13.0405 17.5657 12.9221 17.2798C12.8673 17.1475 12.8489 17.0172 12.8408 16.8988C12.8333 16.7886 12.8333 16.6574 12.8333 16.5145V15.8188C12.8333 15.676 12.8333 15.5447 12.8408 15.4345C12.8489 15.3161 12.8673 15.1859 12.9221 15.0535C13.0405 14.7677 13.2677 14.5405 13.5535 14.4221C13.6859 14.3673 13.8161 14.3489 13.9345 14.3408C14.0447 14.3333 14.176 14.3333 14.3188 14.3333H14.3478C14.4907 14.3333 14.6219 14.3333 14.7321 14.3408C14.8506 14.3489 14.9808 14.3673 15.1131 14.4221C15.399 14.5405 15.6261 14.7677 15.7445 15.0535C15.7993 15.1859 15.8177 15.3161 15.8258 15.4345C15.8306 15.5043 15.8323 15.5825 15.833 15.6667H22C22.2761 15.6667 22.5 15.8905 22.5 16.1667ZM14.7325 15.3469C14.7717 15.3637 14.8029 15.395 14.8198 15.4342C14.821 15.4391 14.8251 15.458 14.8281 15.5026C14.8331 15.5746 14.8333 15.6712 14.8333 15.8333V16.5C14.8333 16.6622 14.8331 16.7587 14.8281 16.8307C14.8251 16.8753 14.821 16.8942 14.8198 16.8991C14.8029 16.9383 14.7717 16.9696 14.7325 16.9865C14.7276 16.9877 14.7086 16.9918 14.6641 16.9948C14.5921 16.9997 14.4955 17 14.3333 17C14.1712 17 14.0746 16.9997 14.0026 16.9948C13.958 16.9918 13.9391 16.9877 13.9342 16.9865C13.895 16.9696 13.8637 16.9383 13.8469 16.8991C13.8456 16.8942 13.8416 16.8753 13.8385 16.8307C13.8336 16.7587 13.8333 16.6622 13.8333 16.5V15.8333C13.8333 15.6712 13.8336 15.5746 13.8385 15.5026C13.8416 15.458 13.8456 15.4391 13.8469 15.4342C13.8637 15.395 13.895 15.3637 13.9342 15.3469C13.9391 15.3456 13.958 15.3416 14.0026 15.3385C14.0746 15.3336 14.1712 15.3333 14.3333 15.3333C14.4955 15.3333 14.5921 15.3336 14.6641 15.3385C14.7086 15.3416 14.7276 15.3456 14.7325 15.3469Z" fill="#12033B"/>
<path d="M22 11.6667C22.2761 11.6667 22.5 11.4428 22.5 11.1667C22.5 10.8905 22.2761 10.6667 22 10.6667H20.6667C20.3905 10.6667 20.1667 10.8905 20.1667 11.1667C20.1667 11.4428 20.3905 11.6667 20.6667 11.6667H22Z" fill="#12033B"/>
<path d="M11.8333 16.1667C11.8333 16.4428 11.6095 16.6667 11.3333 16.6667H10C9.72386 16.6667 9.5 16.4428 9.5 16.1667C9.5 15.8905 9.72386 15.6667 10 15.6667H11.3333C11.6095 15.6667 11.8333 15.8905 11.8333 16.1667Z" fill="#12033B"/>
</svg>
