<svg width="18" height="16" viewBox="0 0 18 16" fill="none" xmlns="http://www.w3.org/2000/svg">
<path fill-rule="evenodd" clip-rule="evenodd" d="M8.56203 1.60121C8.56189 1.60111 8.56217 1.60131 8.56203 1.60121L8.99993 1.92876L9.43799 1.60121C9.43782 1.60134 9.43817 1.60107 9.43799 1.60121C10.6497 0.691523 12.6557 0.144923 14.8911 1.51612C17.4118 3.06232 18.0917 7.21883 15.0046 11.1333C14.2593 12.0784 13.2941 13.016 12.08 13.9146C12.0538 13.934 12.0278 13.9533 12.002 13.9724C10.9135 14.7786 10.1926 15.3125 9.00001 15.3125C7.80747 15.3125 7.08657 14.7786 5.99804 13.9724C5.97224 13.9533 5.94624 13.934 5.92001 13.9146C2.78531 11.5944 1.30512 9.00796 0.998411 6.72109C0.693173 4.4452 1.56305 2.46439 3.10898 1.51612C5.34445 0.144878 7.35034 0.691468 8.56203 1.60121ZM8.06654 2.63549L7.88647 2.50079C6.98908 1.82686 5.48395 1.37909 3.69721 2.47508C2.60361 3.14589 1.85509 4.64535 2.11343 6.57154C2.37029 8.48676 3.63565 10.8242 6.58931 13.0104C7.77593 13.8887 8.20904 14.1875 9.00001 14.1875C9.79099 14.1875 10.2241 13.8887 11.4107 13.0104C12.3936 12.2829 13.19 11.538 13.8243 10.7976L10.0185 6.47986L8.40646 7.48741C7.6093 7.98563 6.57471 7.87351 5.9028 7.21607C5.01526 6.34765 5.1048 4.89392 6.09221 4.14099L8.06654 2.63549ZM14.5249 9.89108C16.8647 6.50792 15.9512 3.48621 14.3028 2.47508C12.5161 1.37909 11.011 1.82686 10.1136 2.50079L10.1126 2.50149L9.33881 3.08009L6.77436 5.03557C6.33241 5.37258 6.29233 6.02326 6.68959 6.41196C6.99033 6.70623 7.45341 6.75641 7.81021 6.53341L9.4498 5.50867C9.90074 5.22683 10.4894 5.31271 10.841 5.71164L14.5249 9.89108Z" fill="#57A4BB"/>
</svg>
