<svg width="20" height="20" viewBox="0 0 20 20" fill="none" xmlns="http://www.w3.org/2000/svg">
<path fill-rule="evenodd" clip-rule="evenodd" d="M15 2.29163C13.2741 2.29163 11.875 3.69074 11.875 5.41663C11.875 5.65518 11.9017 5.8875 11.9524 6.11074L7.52247 8.15494C6.95387 7.37888 6.03578 6.87496 5 6.87496C3.27411 6.87496 1.875 8.27407 1.875 9.99996C1.875 11.7258 3.27411 13.125 5 13.125C6.03575 13.125 6.95381 12.6211 7.52242 11.8451L11.9523 13.8893C11.9017 14.1125 11.875 14.3448 11.875 14.5833C11.875 16.3092 13.2741 17.7083 15 17.7083C16.7259 17.7083 18.125 16.3092 18.125 14.5833C18.125 12.8574 16.7259 11.4583 15 11.4583C13.9587 11.4583 13.0363 11.9676 12.4684 12.7508L8.04418 10.7092C8.09705 10.4813 8.125 10.2439 8.125 9.99996C8.125 9.75606 8.09706 9.51868 8.0442 9.29085L12.4685 7.24924C13.0364 8.03233 13.9587 8.54163 15 8.54163C16.7259 8.54163 18.125 7.14252 18.125 5.41663C18.125 3.69074 16.7259 2.29163 15 2.29163ZM13.125 5.41663C13.125 4.38109 13.9645 3.54163 15 3.54163C16.0355 3.54163 16.875 4.38109 16.875 5.41663C16.875 6.45216 16.0355 7.29163 15 7.29163C13.9645 7.29163 13.125 6.45216 13.125 5.41663ZM3.125 9.99996C3.125 8.96443 3.96447 8.12496 5 8.12496C6.03553 8.12496 6.875 8.96443 6.875 9.99996C6.875 11.0355 6.03553 11.875 5 11.875C3.96447 11.875 3.125 11.0355 3.125 9.99996ZM15 12.7083C13.9645 12.7083 13.125 13.5478 13.125 14.5833C13.125 15.6188 13.9645 16.4583 15 16.4583C16.0355 16.4583 16.875 15.6188 16.875 14.5833C16.875 13.5478 16.0355 12.7083 15 12.7083Z" fill="#272835"/>
</svg>
