<svg width="32" height="32" viewBox="0 0 32 32" fill="none" xmlns="http://www.w3.org/2000/svg">
<rect width="32" height="32" rx="16" fill="white" fill-opacity="0.4"/>
<path d="M9.99982 14.75C9.30946 14.75 8.74982 15.3096 8.74982 16C8.74982 16.6904 9.30946 17.25 9.99982 17.25H10.0088C10.6992 17.25 11.2588 16.6904 11.2588 16C11.2588 15.3096 10.6992 14.75 10.0088 14.75H9.99982Z" fill="#FBF8F6"/>
<path d="M14.7459 16C14.7459 15.3096 15.3056 14.75 15.9959 14.75H16.0049C16.6952 14.75 17.2549 15.3096 17.2549 16C17.2549 16.6904 16.6952 17.25 16.0049 17.25H15.9959C15.3056 17.25 14.7459 16.6904 14.7459 16Z" fill="#FBF8F6"/>
<path d="M20.7498 16C20.7498 15.3096 21.3095 14.75 21.9998 14.75H22.0088C22.6992 14.75 23.2588 15.3096 23.2588 16C23.2588 16.6904 22.6992 17.25 22.0088 17.25H21.9998C21.3095 17.25 20.7498 16.6904 20.7498 16Z" fill="#FBF8F6"/>
</svg>
