<svg width="18" height="18" viewBox="0 0 18 18" fill="none" xmlns="http://www.w3.org/2000/svg">
<path d="M2.68703 6.1875C3.76231 3.75492 6.17266 2.0625 8.99997 2.0625C12.8314 2.0625 15.9375 5.16852 15.9375 9C15.9375 12.8315 12.8315 15.9375 9 15.9375C8.68934 15.9375 8.4375 16.1893 8.4375 16.5C8.4375 16.8107 8.68934 17.0625 9 17.0625C13.4528 17.0625 17.0625 13.4528 17.0625 9C17.0625 4.5472 13.4528 0.9375 8.99997 0.9375C5.38622 0.9375 2.3647 3.31365 1.33835 6.58145C1.28468 6.7523 1.31558 6.9385 1.42156 7.08286C1.52753 7.22723 1.69591 7.3125 1.875 7.3125H3.75C4.06066 7.3125 4.3125 7.06066 4.3125 6.75C4.3125 6.43934 4.06066 6.1875 3.75 6.1875H2.68703Z" fill="#272835"/>
<path d="M9 5.4375C9.31066 5.4375 9.5625 5.68934 9.5625 6V8.76701L10.8977 10.1023C11.1174 10.3219 11.1174 10.6781 10.8977 10.8977C10.6781 11.1174 10.3219 11.1174 10.1023 10.8977L8.60225 9.39775C8.49676 9.29226 8.4375 9.14918 8.4375 9V6C8.4375 5.68934 8.68934 5.4375 9 5.4375Z" fill="#272835"/>
<path d="M2.0625 9C2.0625 8.68934 1.81066 8.4375 1.5 8.4375C1.18934 8.4375 0.9375 8.68934 0.9375 9C0.9375 9.26988 0.949666 9.53695 0.973483 9.8006C1.00143 10.11 1.27491 10.3382 1.58431 10.3102C1.89371 10.2823 2.12187 10.0088 2.09392 9.6994C2.07314 9.46935 2.0625 9.23606 2.0625 9Z" fill="#272835"/>
<path d="M2.54762 11.6864C2.43812 11.3957 2.11367 11.2488 1.82295 11.3583C1.53223 11.4678 1.38533 11.7922 1.49483 12.0829C1.61485 12.4016 1.75294 12.7108 1.90778 13.0091C2.05089 13.2849 2.39043 13.3924 2.66616 13.2493C2.9419 13.1062 3.04942 12.7666 2.90631 12.4909C2.77188 12.2319 2.65193 11.9633 2.54762 11.6864Z" fill="#272835"/>
<path d="M4.03569 14.0972C3.82435 13.8695 3.46844 13.8562 3.24075 14.0676C3.01305 14.2789 2.9998 14.6348 3.21114 14.8625C3.45702 15.1274 3.71955 15.3756 3.99703 15.6053C4.23637 15.8033 4.59095 15.7699 4.78901 15.5306C4.98708 15.2912 4.95362 14.9366 4.71429 14.7386C4.47504 14.5406 4.24832 14.3263 4.03569 14.0972Z" fill="#272835"/>
<path d="M6.23418 15.6944C5.95172 15.5651 5.6179 15.6892 5.48856 15.9716C5.35923 16.2541 5.48336 16.5879 5.76582 16.7173C6.02816 16.8374 6.2979 16.9434 6.57413 17.0343C6.86922 17.1314 7.18717 16.971 7.2843 16.6759C7.38143 16.3808 7.22095 16.0628 6.92587 15.9657C6.68971 15.888 6.4589 15.7973 6.23418 15.6944Z" fill="#272835"/>
</svg>
